<svg version="1.2" xmlns="http://www.w3.org/2000/svg" viewBox="0 0 123 123" width="123" height="123">
	<title>steering-wheel-icon-svg</title>
	<style>
		.s0 { fill: #3e6aff } 
	</style>
	<g>
		<path fill-rule="evenodd" class="s0" d="m61.4 0c34 0 61.5 27.5 61.5 61.4 0 34-27.5 61.5-61.5 61.5-33.9 0-61.4-27.5-61.4-61.5 0-33.9 27.5-61.4 61.4-61.4zm-0.2 53.3c6.3 0 11.5 5.1 11.5 11.5 0 6.3-5.2 11.4-11.5 11.4-6.3 0-11.5-5.1-11.5-11.4 0-6.4 5.2-11.5 11.5-11.5zm0 8.3c1.7 0 3.2 1.4 3.2 3.2 0 1.7-1.5 3.2-3.2 3.2-1.8 0-3.2-1.5-3.2-3.2 0-1.8 1.4-3.2 3.2-3.2zm-46.4-17c4.4-12.3 13.5-22.7 24.9-28 15.6-7.3 34.6-7.8 50.7 4.1 9.5 7 12.9 12.8 17.6 23 3.6 9 0.7 11.9-10.8 6.9-23.8-11.8-47.9-11.3-72.2 0-8.9 5.8-13.9 0.9-10.2-6zm61.1 64.4c16.6-5.2 26.3-15.8 32.3-29.3 3.8-10.4-8.3-13.9-12.5-7.1-2.6 5.1-5.6 9.5-9.6 12.8-6.2 5.3-15.2 6.2-16.6 16.2-0.7 5.1 0.5 9.8 6.4 7.4zm-28.6 0c-16.7-5.2-26.4-15.8-32.3-29.3-3.9-10.4 8.2-13.9 12.5-7.1 2.6 5.1 5.6 9.5 9.6 12.8 6.2 5.3 15.1 6.2 16.5 16.2 0.8 5.1-0.4 9.8-6.3 7.4z"/>
		<path id="Shape 1" fill-rule="evenodd" class="s0" d="m74.8 50.1c-7.3 0.3-18.4 0.2-24.7 4.8-1.9 1.4-1.1 4.9-0.9 6.8 0.5 6 0 13.1 6 16.3 5.7 3.1 16.8 0 19.8-6.2 1.8-3.7-1.1-14.9-4.1-18.1-2.6-2.9-11-1.7-14.3-1.5"/>
	</g>
</svg>